<svg width="156" height="119" viewBox="0 0 156 119" fill="none" xmlns="http://www.w3.org/2000/svg">
<path d="M46.3896 45.3189C46.3896 45.3189 47.24 70.7244 45.7532 71.8973C44.2697 73.0708 40.8772 93.1367 39.8798 94.323C38.8825 95.5092 29.3069 110.187 28.3091 111.373C27.3114 112.558 0.963219 118.256 0.963219 118.256C0.790501 117.739 0.697802 113.201 0.659511 106.206C7.85012 104.886 20.5908 102.593 20.5908 102.593C20.5908 102.593 31.7365 82.9806 31.7619 81.9078C31.7874 80.835 38.9943 50.1138 37.7183 49.2762C36.4425 48.4416 31.8066 25.7661 31.1801 24.9452C30.5536 24.1243 16.217 14.6467 15.2355 15.1614C14.2508 15.673 5.03002 22.4383 5.03002 22.4383L10.216 89.9939L22.8674 78.4774C22.8674 78.4774 28.9548 50.4158 27.98 50.661C27.0048 50.904 18.9253 50.4435 18.9253 50.4435L17.0166 72.9626L11.7092 27.4389L21.7037 29.0215L30.3746 45.3465L27.3212 78.3134L16.4475 96.8566C16.4475 96.8566 7.34816 94.4617 0.643494 93.1349C0.691395 58.7031 1.33402 1.13234 1.33402 1.13234L19.7687 1.57356L39.7585 18.1671L46.3896 45.3189ZM91.2484 59.7301L82.6125 90.3145L73.9766 106.758H91.2484V118.38H56.7057V114.434L61.2042 106.378L79.7424 80.8118L66.9341 93.1467L71.1002 82.0365L79.3749 56.4908L83.3331 30.2261L80.0943 15.4711L74.3394 13.313L71.8199 22.3101H58.5065V10.4357L71.4587 0L89.4529 2.87758L96.4646 27.307L91.2484 59.7301ZM155.477 0.704506C157.306 0.704506 138.117 54.437 138.117 54.437V118.255H126.239V54.8332L106.592 0.708674H117.811L131.095 40.326H132.224L135.248 48.5845L133.541 40.326L144.255 0.708674H155.478L155.477 0.704506Z" fill="url(#paint0_linear_61_24)"/>
<defs>
<linearGradient id="paint0_linear_61_24" x1="0.643494" y1="59.19" x2="155.6" y2="59.19" gradientUnits="userSpaceOnUse">
<stop stop-color="#141313"/>
<stop offset="1" stop-color="#FF1111"/>
</linearGradient>
</defs>
</svg>
